<svg viewBox="0 0 28 21" fill="none" xmlns="http://www.w3.org/2000/svg">
  <path d="M24.8 20.4c-.6 0-1.1-.2-1.6-.6l-2.6-2.2h-15C2.6 17.6 0 15 0 12V5.6C0 2.6 2.6 0 5.6 0h16c3 0 5.6 2.6 5.6 5.6v12.5c0 1.2-1.1 2.3-2.4 2.3zM5.6 1.5c-2.2 0-4 1.8-4 4v6.4c0 2.2 1.8 4 4 4H21c.2 0 .3 0 .5.2l2.9 2.6c.5.5 1.3.2 1.3-.6V5.6c0-2.2-1.8-4-4-4-.1-.1-16.1-.1-16.1-.1z" fill="currentColor"/>
  <path d="M7.2 10.2c-.3 0-.6-.2-.8-.3-.2-.2-.3-.5-.3-.8 0-.3.2-.6.3-.8.5-.5 1.3-.5 1.8 0 .2.2.3.5.3.8 0 .3-.2.6-.3.8-.3.1-.6.3-1 .3zM13.6 10.2c-.3 0-.6-.2-.8-.3-.2-.2-.3-.5-.3-.8 0-.3.2-.6.3-.8.5-.5 1.3-.5 1.8 0 .2.2.3.5.3.8 0 .3-.2.6-.3.8-.3.1-.6.3-1 .3zM20 10.2c-.3 0-.6-.2-.8-.3-.2-.2-.3-.5-.3-.8 0-.3.2-.6.3-.8.5-.5 1.3-.5 1.8 0 .2.2.3.5.3.8 0 .3-.2.6-.3.8-.3.1-.6.3-1 .3z" fill="currentColor"/>
</svg>
