<svg viewBox="0 0 21 28" fill="none" xmlns="http://www.w3.org/2000/svg">
  <path d="M16.8 27.2H4c-2.2 0-4-1.8-4-4V4c0-2.2 1.8-4 4-4h5.8c.6 0 1.3.3 1.8.6l8.6 8.6c.5.5.6 1.1.6 1.8v12.2c0 2.2-1.7 4-4 4zM4 1.6C2.7 1.6 1.6 2.7 1.6 4v19.2c0 1.3 1.1 2.4 2.4 2.4h12.8c1.3 0 2.4-1.1 2.4-2.4V11c0-.2-.2-.5-.2-.6l-8.6-8.6c-.2-.2-.3-.2-.6-.2H4z" fill="currentColor"/>
  <path d="M20 11.2h-6.4c-2.2 0-4-1.8-4-4V.8c0-.5.3-.8.8-.8s.8.3.8.8v6.4c0 1.3 1.1 2.4 2.4 2.4H20c.5 0 .8.3.8.8s-.3.8-.8.8zM9.2 21.3c-.6 0-1.1-.2-1.4-.6L6 18.9c-.3-.3-.3-.8 0-1.1.3-.3.8-.3 1.1 0l1.8 1.8c.2.2.3.2.3.2.2 0 .3 0 .3-.2l4.3-4.3c.3-.3.8-.3 1.1 0 .3.3.3.8 0 1.1l-4.3 4.3c-.3.2-.8.6-1.4.6z" fill="currentColor"/>
</svg>
