<svg viewBox="0 0 16 17" fill="none" xmlns="http://www.w3.org/2000/svg">
  <path d="M6.4 11.933c-.133 0-.333 0-.4-.133-.2-.2-.2-.533 0-.733l2.8-2.8-2.8-2.8c-.2-.2-.2-.534 0-.734.2-.2.533-.2.733 0l3.2 3.2c.2.2.2.534 0 .734l-3.2 3.2c0 .066-.2.066-.333.066z" fill="currentColor"/>
  <path d="M9.067 8.733H.533C.2 8.733 0 8.533 0 8.2s.2-.533.533-.533h8.534c.333 0 .533.2.533.533s-.2.533-.533.533z" fill="currentColor"/>
  <path d="M13.333 16.2h-6.4c-.333 0-.533-.2-.533-.533 0-.334.2-.534.533-.534h6.4c.867 0 1.6-.733 1.6-1.6V2.867c0-.867-.733-1.6-1.6-1.6h-6.4c-.333 0-.533-.2-.533-.534C6.4.4 6.6.2 6.933.2h6.4C14.8.2 16 1.4 16 2.867v10.666C16 15 14.867 16.2 13.333 16.2z" fill="currentColor"/>
</svg>
