<svg viewBox="0 0 131 40" fill="none" xmlns="http://www.w3.org/2000/svg">
  <path d="M47.94 21.686h-2.819V10.953h-4.498v10.733h-2.82V8.912h10.129l.008 12.774zM59.453 17.15c0 3.508-1.258 4.806-4.693 4.806-3.435 0-4.718-1.298-4.718-4.806 0-3.507 1.283-4.84 4.718-4.84s4.693 1.316 4.693 4.84zm-6.533 0c0 2.192.388 2.749 1.84 2.749s1.832-.557 1.832-2.749-.406-2.782-1.832-2.782c-1.426 0-1.84.573-1.84 2.782zM70.636 17.226c0 3.634-1.207 4.73-3.511 4.73a5.068 5.068 0 0 1-3.047-.894c0 .633.059 1.299 0 1.965v2.21h-2.693V12.588h2.229l.202 1.34a5.013 5.013 0 0 1 3.638-1.577c2.27-.025 3.182 1.746 3.182 4.874zm-2.828 0c0-2.21-.405-2.749-1.426-2.749a3.97 3.97 0 0 0-2.27.843v4.216a7.78 7.78 0 0 0 2.084.371c1.165.009 1.612-.404 1.612-2.681zM77.506 14.68v7.006H74.79V14.68h-3.047v-2.117h8.803v2.117h-3.039zM90.369 15.666v6.02h-2.17l-.278-1.39a4.422 4.422 0 0 1-3.376 1.618c-1.688 0-2.97-.927-2.97-2.64v-.927c0-1.467 1.037-2.318 2.801-2.318h3.275v-.405c0-.928-.354-1.189-1.51-1.189-.845 0-2.39.06-3.875.152l-.244-1.855a32.163 32.163 0 0 1 4.751-.447c2.321.025 3.596.801 3.596 3.381zm-6.11 3.263c0 .65.337.945 1.063.945a4.138 4.138 0 0 0 2.304-.886v-1.281h-2.473c-.667 0-.895.354-.895.843v.38zM101.248 21.686h-2.743v-7.209h-1.19c-.633 0-.844.245-.962.91a35.421 35.421 0 0 1-.675 4.158c-.405 1.905-1.874 2.487-3.73 2.26l-.28-2.041c.93-.143 1.334-.261 1.562-.978.326-1.276.524-2.58.591-3.896a2.258 2.258 0 0 1 1.567-2.234c.311-.1.64-.132.965-.093h4.879l.017 9.123zM118.188 15.312c0 5.059-1.435 6.568-5.461 6.568-1.933 0-3.511-.076-4.98-.168v-12.8a75.563 75.563 0 0 1 4.98-.168c4.026 0 5.46 1.5 5.46 6.568zm-2.971 0c0-3.373-.574-4.36-2.49-4.36h-2.153v8.685h2.153c1.916.017 2.532-.97 2.532-4.325h-.042zM122.787 18.356l-.928 3.372h-2.895l3.697-12.057a.978.978 0 0 1 .987-.742h2.667a.963.963 0 0 1 .988.742L131 21.686h-2.878l-.929-3.372-4.406.042zm2.718-6.105a12.31 12.31 0 0 1-.262-1.205h-.506l-.278 1.205-1.072 3.913h3.19l-1.072-3.913zM42.04 28.575c0 2.251-.599 2.985-2.27 2.985-.844 0-1.469 0-2.076-.076v-5.818c.607 0 1.274-.076 2.076-.076 1.671 0 2.27.734 2.27 2.985zm-.776 0c0-1.762-.38-2.344-1.494-2.344h-1.333v4.646h1.333c1.114.034 1.494-.54 1.494-2.302zM43.864 25.632a.194.194 0 0 1 .22.22v.48c0 .152-.068.22-.22.22h-.346a.194.194 0 0 1-.22-.22v-.48a.202.202 0 0 1 .22-.22h.346zm-.523 5.852v-4.106h.708v4.106h-.708zM48.582 27.403l-.06.523h-1.56c-.76 0-1.014 0-1.014.522 0 .523.203.498.6.59l1.19.237c.65.16.953.43.953 1.13 0 1.011-.565 1.18-1.755 1.18-.54.002-1.079-.037-1.612-.118l.05-.523c.406 0 .844.042 1.418 0 .92 0 1.207-.084 1.207-.573 0-.49-.253-.48-.65-.573l-1.181-.27a1.022 1.022 0 0 1-.92-1.096c0-.953.48-1.147 1.603-1.13.579-.001 1.156.032 1.73.101zM50.886 30.354c0 .396.152.548.557.548h.625l.084.548c-.305.07-.616.107-.928.11a.972.972 0 0 1-1.055-1.113v-2.53h-.743v-.497h.743v-1.256h.717v1.214h1.308v.565h-1.308v2.411zM55.646 27.951h-.236a3.48 3.48 0 0 0-1.536.523v3.01h-.718v-4.106h.557l.076.649a2.947 2.947 0 0 1 1.756-.75h.185l-.084.674zM59.799 30.877l.076.48a5.069 5.069 0 0 1-1.595.228c-1.418 0-1.967-.59-1.967-2.167 0-1.576.565-2.141 1.89-2.141 1.326 0 1.765.455 1.765 1.34 0 .734-.296 1.164-.98 1.164h-1.907c.068.978.447 1.197 1.291 1.197.478-.004.954-.037 1.427-.101zm-2.735-1.686h1.739c.371 0 .447-.304.447-.607 0-.523-.278-.734-1.013-.734-.734 0-1.148.337-1.173 1.374v-.033zM64.23 27.403l-.06.523h-1.56c-.76 0-1.014 0-1.014.522 0 .523.203.498.6.59l1.198.27c.65.16.954.43.954 1.13 0 1.012-.566 1.18-1.756 1.18-.54.003-1.078-.037-1.612-.117l.051-.523c.405 0 .844.042 1.418 0 .92 0 1.207-.084 1.207-.573 0-.49-.253-.481-.65-.574l-1.182-.27a1.022 1.022 0 0 1-.928-1.13c0-.952.481-1.146 1.604-1.13.578 0 1.156.033 1.73.102zM68.602 27.403l-.06.523h-1.56c-.76 0-1.013 0-1.013.522 0 .523.202.498.599.59l1.198.27c.65.16.954.43.954 1.13 0 1.012-.565 1.18-1.756 1.18-.54.003-1.078-.037-1.612-.117l.051-.523c.405 0 .844.042 1.418 0 .92 0 1.207-.084 1.207-.573 0-.49-.253-.481-.65-.574l-1.182-.27a1.022 1.022 0 0 1-.928-1.13c0-.952.481-1.146 1.604-1.13.578 0 1.156.033 1.73.102zM73.16 30.877l.076.48a5.069 5.069 0 0 1-1.596.228c-1.418 0-1.966-.59-1.966-2.167 0-1.576.565-2.141 1.89-2.141 1.326 0 1.764.455 1.764 1.34 0 .734-.295 1.164-.979 1.164h-1.907c.084.978.447 1.18 1.291 1.18.477.002.953-.026 1.427-.084zm-2.735-1.686h1.739c.371 0 .447-.304.447-.607 0-.523-.279-.734-1.013-.734-.734 0-1.148.337-1.173 1.374v-.033zM78.004 31.484h-.557l-.068-.59a2.533 2.533 0 0 1-1.629.691c-1.038 0-1.443-.733-1.443-2.167 0-1.602.498-2.141 1.553-2.141.51 0 1.012.128 1.46.37V25.54h.718l-.034 5.944zm-2.017-.523a2.103 2.103 0 0 0 1.291-.565v-2.268a4.418 4.418 0 0 0-1.258-.227c-.709 0-.987.295-.987 1.509s.287 1.551.954 1.551zM81.945 29.663l-.573 1.821h-.769l1.874-5.582a.278.278 0 0 1 .279-.202h.776a.279.279 0 0 1 .279.202l1.907 5.582h-.768l-.574-1.821h-2.43zm1.46-2.951c-.05-.152-.1-.32-.143-.473h-.236c0 .152-.093.32-.144.473l-.734 2.31h1.992l-.734-2.31zM89.61 27.403l-.06.523H87.99c-.76 0-1.013 0-1.013.523 0 .522.203.497.6.59l1.198.27c.65.16.953.43.953 1.13 0 1.011-.565 1.18-1.755 1.18-.54.002-1.079-.038-1.612-.118l.05-.523c.406 0 .887.042 1.418 0 .92 0 1.207-.084 1.207-.573 0-.49-.253-.48-.65-.574l-1.181-.27a1.022 1.022 0 0 1-.929-1.146c0-.953.482-1.147 1.604-1.13.579.004 1.156.044 1.73.118zM93.981 27.403l-.059.523h-1.561c-.76 0-1.013 0-1.013.523 0 .522.203.497.6.59l1.198.27c.65.16.954.43.954 1.13 0 1.011-.566 1.18-1.756 1.18-.54.002-1.079-.038-1.612-.118l.05-.54c.406 0 .845.042 1.419 0 .92 0 1.206-.084 1.206-.573 0-.49-.253-.48-.65-.573l-1.181-.27a1.022 1.022 0 0 1-.928-1.147c0-.953.48-1.147 1.603-1.13.58.01 1.157.055 1.73.135zM98.539 30.877l.076.48a5.069 5.069 0 0 1-1.595.228c-1.418 0-1.967-.59-1.967-2.167 0-1.576.566-2.141 1.89-2.141 1.326 0 1.765.455 1.765 1.34 0 .734-.296 1.164-.98 1.164h-1.881c.067.978.447 1.197 1.29 1.197.47-.005.938-.038 1.402-.101zm-2.735-1.686h1.73c.372 0 .448-.304.448-.607 0-.523-.279-.734-1.013-.734-.734 0-1.122.337-1.122 1.374l-.043-.033zM100.91 30.354c0 .396.153.548.558.548h.624l.085.548c-.305.07-.616.107-.929.11a.972.972 0 0 1-1.055-1.113v-2.53h-.742v-.497h.742v-1.256h.718v1.214h1.308v.565h-1.308v2.411zM106.27 27.403l-.059.523h-1.561c-.76 0-1.013 0-1.013.522 0 .523.202.498.6.59l1.198.27c.65.16.953.43.953 1.13 0 1.012-.565 1.18-1.755 1.18-.54.003-1.079-.037-1.612-.117l.05-.523c.405 0 .844.042 1.418 0 .92 0 1.207-.084 1.207-.573 0-.49-.253-.481-.65-.574l-1.181-.27a1.022 1.022 0 0 1-.929-1.13c0-.952.481-1.146 1.604-1.13.578 0 1.156.033 1.73.102zM10.272 14.764L.194 8.862v22.681l8.035 4.663a4.223 4.223 0 0 0 3.714.362 4.076 4.076 0 0 0 2.6-3.82V22.168a8.577 8.577 0 0 0-4.271-7.403zM7.79 30.7l-3.376-1.998V16.897l3.419 2.024a3.374 3.374 0 0 1 1.646 2.883v7.935a1.12 1.12 0 0 1-1.689.96zM19.606 14.663a8.605 8.605 0 0 0-4.279 7.411V40l4.22-2.53v-5.826l5.908-3.499v5.843l4.22-2.335V8.735l-10.069 5.928zm5.85 8.305l-5.065 2.808V22.53a4.516 4.516 0 0 1 2.22-3.888l2.844-1.686v6.012z" fill="#fff"/>
  <path d="M0 0l14.914 8.643-4.372 2.563L0 5.16V0z" transform="translate(14.905)" fill="url(#paint0_linear)"/>
  <path d="M14.905 0L0 8.643l4.372 2.563L14.905 5.16V0z" fill="url(#paint1_linear)"/>
  <path d="M0 3.153L5.452 0l5.461 3.153-5.46 3.145L0 3.153z" transform="translate(9.453 8.052)" fill="url(#paint2_linear)"/>
  <defs>
    <linearGradient id="paint0_linear" x2="1" gradientUnits="userSpaceOnUse" gradientTransform="matrix(14.9054 0 0 14.8904 0 -1.847)">
      <stop stop-color="#fff" stop-opacity=".6"/>
      <stop offset="1" stop-color="#fff" stop-opacity=".3"/>
    </linearGradient>
    <linearGradient id="paint1_linear" x2="1" gradientUnits="userSpaceOnUse" gradientTransform="matrix(14.9054 0 0 14.8904 0 -1.847)">
      <stop stop-color="#fff" stop-opacity=".3"/>
      <stop offset="1" stop-color="#fff" stop-opacity=".6"/>
    </linearGradient>
    <linearGradient id="paint2_linear" x2="1" gradientUnits="userSpaceOnUse" gradientTransform="matrix(0 47.0497 -81.5212 0 249.202 61.914)">
      <stop stop-color="#fff" stop-opacity=".3"/>
      <stop offset="1" stop-color="#fff" stop-opacity=".6"/>
    </linearGradient>
  </defs>
</svg>
