<svg viewBox="0 0 21 26" fill="none" xmlns="http://www.w3.org/2000/svg">
  <path d="M11.1 17.6H10c-1 0-1.8-.6-2.1-1.4l-.3-1.1c-.2-.3 0-.8.2-1.1.2-.3.6-.5 1-.5h3.7c.3 0 .8.2 1 .5.2.3.3.8.2 1.1l-.3 1.1c-.7.9-1.5 1.4-2.3 1.4zM9.2 15l.2.6c0 .2.3.3.5.3H11c.2 0 .5-.2.5-.3l.2-.6H9.2z" fill="currentColor"/>
  <path d="M11.9 16.6l1.6 7c0 .3 0 .6-.3.8L11 25.8c-.2.2-.3.2-.5.2s-.3 0-.5-.2l-2.2-1.4c-.3-.2-.5-.5-.3-.8l1.6-7h2.8zm-2.7 7.1l1.3 1 1.3-1-1.3-5.8-1.3 5.8zM10.4 14.7C6.9 14.7 4 11.5 4 7.5S6.9.3 10.4.3c3.5 0 6.4 3.2 6.4 7.2s-2.8 7.2-6.4 7.2zm0-12.8c-2.7 0-4.8 2.6-4.8 5.6 0 3 2.1 5.6 4.8 5.6 2.7 0 4.8-2.6 4.8-5.6 0-3-2-5.6-4.8-5.6z" fill="currentColor"/>
  <path d="M20 25.6c-.5 0-.8-.3-.8-.8v-5.4c0-3-2.4-5.4-5.4-5.4h-.6c-.5 0-.8-.3-.8-.8s.3-.8.8-.8h.6c3.8 0 7 3.2 7 7v5.4c0 .5-.3.8-.8.8zM.8 25.6c-.5 0-.8-.3-.8-.8v-5.4c0-3.8 3.2-7 7-7h.6c.5 0 .8.3.8.8s-.3.8-.8.8h-.5c-3 0-5.4 2.4-5.4 5.4v5.4c-.1.5-.4.8-.9.8z" fill="currentColor"/>
</svg>
