<svg viewBox="0 0 28 28" fill="none" xmlns="http://www.w3.org/2000/svg">
  <path d="M13.6 27.2C6.1 27.2 0 21.1 0 13.6S6.1 0 13.6 0s13.6 6.1 13.6 13.6-6 13.6-13.6 13.6zm0-25.6c-6.6 0-12 5.4-12 12s5.4 12 12 12 12-5.4 12-12-5.4-12-12-12z" fill="currentColor"/>
  <path d="M8.41 14.87h1.35v1.116H8.41v1.458h1.35V20h1.675v-2.556h7.29v-1.458h-7.29V14.87h3.222c1.782 0 3.024-.36 3.708-1.098.684-.738 1.026-1.656 1.026-2.736 0-1.8-1.134-3.276-2.97-3.528-.432-.072-1.062-.108-1.908-.108H9.76v6.03H8.41v1.44zm3.025-5.976h3.204c.774 0 1.296.036 1.566.108.882.234 1.44 1.026 1.44 2.088 0 1.458-.792 2.304-2.97 2.304h-3.24v-4.5z" fill="currentColor"/>
  <path fill="currentColor" d="M4.937 4.126l18.125 18.125-1.06 1.06L3.875 5.188z"/>
</svg>
