<?xml version="1.0" standalone="no"?>
<!DOCTYPE svg PUBLIC "-//W3C//DTD SVG 20010904//EN"
 "http://www.w3.org/TR/2001/REC-SVG-20010904/DTD/svg10.dtd">
<svg version="1.0" xmlns="http://www.w3.org/2000/svg"
 width="240.000000pt" height="240.000000pt" viewBox="0 0 240.000000 240.000000"
 preserveAspectRatio="xMidYMid meet">
<metadata>
Created by potrace 1.11, written by Peter Selinger 2001-2013
</metadata>
<g transform="translate(0.000000,240.000000) scale(0.100000,-0.100000)"
fill="#000000" stroke="none">
<path d="M1179 2390 c-22 -13 -52 -60 -39 -60 6 0 15 11 20 25 10 26 24 32 35
15 3 -5 0 -8 -7 -5 -11 4 -23 -12 -44 -60 -5 -12 43 -20 89 -14 6 1 18 0 26
-2 7 -2 16 2 18 9 3 7 1 12 -4 11 -18 -3 -33 1 -33 10 0 19 30 19 55 -1 21
-17 29 -18 38 -8 9 10 9 11 0 6 -7 -4 -13 -2 -13 3 0 6 -5 11 -11 11 -6 0 -17
7 -26 15 -12 12 -18 13 -29 4 -21 -17 -47 -3 -39 21 5 16 3 19 -11 13 -12 -4
-15 -3 -10 5 9 14 6 14 -15 2z m51 -71 c0 -12 -41 -22 -51 -12 -5 5 -7 17 -3
26 5 13 10 14 30 5 13 -6 24 -15 24 -19z"/>
<path d="M1180 2320 c0 -5 7 -10 15 -10 8 0 15 5 15 10 0 6 -7 10 -15 10 -8 0
-15 -4 -15 -10z"/>
<path d="M1220 2360 c0 -5 7 -10 15 -10 8 0 15 5 15 10 0 6 -7 10 -15 10 -8 0
-15 -4 -15 -10z"/>
<path d="M1116 2344 c-4 -10 -12 -14 -22 -10 -10 4 -14 1 -12 -6 3 -7 17 -14
32 -15 21 -1 25 1 17 11 -7 9 -7 16 1 24 8 8 9 12 1 12 -6 0 -14 -7 -17 -16z"/>
<path d="M1029 2298 c-45 -27 -45 -26 -29 -41 10 -10 11 -9 5 2 -5 9 -4 12 2
8 6 -4 9 -18 8 -31 -2 -19 1 -24 16 -23 10 1 21 7 23 14 6 16 -3 44 -13 39 -4
-3 -13 -1 -20 4 -11 6 -8 11 9 20 13 7 20 8 16 2 -3 -6 -2 -13 4 -17 9 -5 14
7 11 27 0 4 7 4 16 1 11 -4 13 -8 5 -11 -7 -2 -12 -8 -12 -13 0 -6 5 -7 10 -4
10 6 12 0 12 -35 0 -35 -2 -41 -11 -36 -5 3 -14 0 -20 -7 -8 -11 -5 -14 17
-14 16 0 29 5 30 11 1 6 3 22 5 36 2 14 0 33 -5 42 -5 10 -4 20 4 24 6 4 8 3
5 -3 -4 -6 0 -13 8 -17 8 -3 15 -2 15 3 0 12 -26 32 -33 25 -3 -3 -14 -1 -24
5 -15 7 -28 5 -54 -11z m21 -58 c0 -5 -4 -10 -10 -10 -5 0 -10 5 -10 10 0 6 5
10 10 10 6 0 10 -4 10 -10z"/>
<path d="M1284 2312 c11 -19 -13 -44 -32 -33 -9 5 -25 5 -39 -2 -16 -7 -27 -7
-38 3 -8 7 -18 10 -21 7 -11 -10 4 -37 18 -33 7 1 9 1 5 -2 -10 -5 42 -62 57
-62 5 0 -1 11 -13 24 -19 20 -21 28 -11 43 10 16 10 16 5 -4 -4 -14 -2 -23 4
-23 10 0 16 22 11 45 -1 6 4 5 10 -1 9 -9 9 -17 0 -34 -18 -33 -4 -36 17 -4
10 16 25 31 33 33 36 9 45 6 42 -13 -3 -17 -2 -18 12 -7 12 10 13 17 6 27 -9
9 -7 12 7 10 11 -2 17 -10 15 -22 -3 -15 -2 -16 12 -5 9 8 19 11 23 7 3 -3 1
-6 -6 -6 -9 0 -9 -4 1 -14 7 -8 15 -14 18 -14 20 1 30 -3 25 -11 -3 -5 0 -13
6 -17 7 -4 9 -3 5 4 -4 7 1 10 14 7 11 -2 20 0 20 6 0 8 -8 11 -27 8 -3 0 -10
6 -15 15 -5 9 -15 13 -25 9 -10 -4 -14 -2 -10 4 11 18 -55 52 -75 39 -13 -8
-22 -5 -39 9 -12 11 -19 14 -15 7z"/>
<path d="M970 2260 c0 -6 -4 -9 -8 -6 -5 3 -9 -1 -9 -9 0 -8 6 -16 13 -19 9
-3 11 1 7 12 -8 21 1 14 15 -13 9 -17 7 -21 -8 -21 -10 0 -17 3 -14 7 2 4 -5
10 -16 14 -11 4 -18 12 -14 18 3 7 -3 3 -13 -8 -10 -11 -25 -21 -33 -23 -8 -2
-18 -8 -21 -14 -3 -5 -8 -9 -10 -8 -2 1 -22 -8 -44 -21 -22 -13 -42 -23 -45
-22 -11 3 -29 -20 -23 -30 4 -6 0 -8 -10 -4 -9 3 -16 3 -16 -1 3 -19 -2 -25
-11 -12 -7 11 -10 11 -10 2 0 -7 -4 -11 -9 -7 -6 3 -8 -3 -6 -14 2 -11 -3 -22
-11 -25 -12 -4 -14 0 -10 17 3 12 3 16 0 10 -3 -7 -13 -13 -21 -13 -9 0 -13
-6 -10 -13 3 -8 1 -20 -3 -28 -5 -8 -4 -19 2 -26 7 -8 7 -13 0 -13 -18 0 -31
25 -22 40 6 8 10 20 10 25 -1 6 -6 1 -12 -10 -6 -11 -17 -24 -25 -28 -7 -5
-11 -12 -8 -17 3 -5 -3 -11 -14 -15 -10 -3 -27 -15 -37 -27 -11 -12 -14 -19
-9 -16 6 3 18 -2 27 -12 17 -16 17 -18 -3 -38 -11 -12 -16 -22 -11 -22 6 0 17
11 25 24 14 21 14 25 -5 44 l-21 20 32 16 c17 9 29 21 26 26 -9 14 9 12 23 -2
14 -14 16 -32 2 -23 -5 3 -22 -1 -37 -9 l-28 -15 25 0 c56 -1 90 -13 90 -33 0
-7 -4 -7 -13 1 -8 6 -23 9 -35 6 -12 -2 -22 0 -22 6 0 5 -4 9 -10 9 -5 0 -7
-7 -4 -15 4 -9 16 -13 35 -11 16 2 32 0 34 -4 7 -11 -24 -21 -38 -13 -8 4 -7
1 1 -9 11 -13 9 -15 -13 -15 -26 0 -34 12 -12 20 8 4 8 6 0 6 -6 1 -25 -21
-41 -48 -19 -30 -37 -48 -48 -48 -9 1 -18 -4 -20 -11 -1 -7 0 -8 3 -2 7 14 23
12 21 -2 -2 -7 4 -13 12 -13 8 0 15 7 16 15 0 8 8 30 18 48 17 33 18 33 37 16
19 -17 19 -19 4 -30 -9 -7 -12 -15 -7 -18 18 -11 6 -50 -19 -57 -17 -5 -19 -7
-6 -8 11 -1 30 8 44 19 14 11 30 17 37 13 7 -4 7 -1 -1 7 -10 11 -15 11 -28 0
-8 -7 -15 -8 -15 -2 0 5 7 15 15 22 12 10 18 10 30 0 12 -10 18 -8 35 11 18
22 30 16 13 -7 -5 -5 -1 -2 8 8 9 9 20 14 24 10 3 -4 11 1 16 11 6 9 14 15 18
13 4 -3 17 3 28 14 12 10 24 16 27 13 3 -4 6 -1 6 6 0 7 4 10 8 7 5 -3 24 5
43 17 19 11 39 21 44 22 6 0 9 7 7 13 -1 7 3 12 10 11 19 -3 51 12 65 30 7 9
13 12 13 7 0 -5 9 -1 21 10 12 10 24 19 28 19 3 0 5 4 3 9 -2 5 4 6 13 2 9 -3
18 1 21 9 4 8 10 13 14 10 12 -8 41 25 34 37 -4 6 -12 1 -19 -12 -10 -19 -13
-20 -18 -6 -4 10 -12 14 -18 10 -8 -4 -7 -9 2 -16 10 -6 7 -7 -10 -3 -15 5
-21 3 -17 -3 3 -6 2 -13 -4 -17 -6 -4 -8 -10 -6 -14 3 -4 -1 -8 -9 -8 -10 0
-12 4 -5 12 5 7 7 15 3 18 -13 14 -21 6 -19 -17 2 -17 -1 -23 -10 -19 -8 3
-14 0 -14 -6 0 -6 -3 -10 -7 -10 -5 1 -15 1 -23 0 -13 -1 -13 -2 0 -11 13 -8
13 -10 -2 -10 -9 0 -20 5 -23 10 -3 6 -1 10 5 10 6 0 8 5 4 11 -4 8 -9 7 -16
-2 -8 -11 -9 -11 -5 1 2 8 -3 21 -12 28 -14 11 -14 11 2 6 10 -4 17 -1 17 6 0
6 -4 9 -9 6 -4 -3 -17 4 -27 17 l-19 22 25 -20 c15 -12 20 -14 12 -4 -10 14
-8 16 16 13 15 -1 27 -3 27 -4 0 -1 10 -3 22 -4 12 -1 20 1 17 6 -3 5 -13 7
-22 6 -10 -2 -16 3 -14 10 1 8 -2 11 -9 6 -8 -5 -9 -3 -4 7 7 12 5 11 -11 -1
-15 -11 -16 -11 -6 0 6 8 12 18 12 23 0 5 -8 1 -17 -10 -10 -10 -13 -12 -8 -3
9 13 8 13 -7 1 -10 -7 -18 -12 -19 -10 -7 33 -6 46 2 61 6 10 14 16 19 13 5
-3 12 0 16 6 4 7 3 9 -3 6 -5 -3 -10 0 -10 8 0 17 24 28 33 14 3 -5 0 -16 -6
-24 -16 -19 0 -19 27 0 14 10 24 12 28 5 4 -6 12 -7 18 -3 8 5 8 2 0 -9 -7 -8
-10 -18 -6 -21 3 -4 12 1 20 11 13 15 13 14 3 -6 -7 -13 -9 -26 -7 -29 3 -2 8
5 12 18 6 17 9 19 16 8 8 -12 10 -12 18 1 8 12 14 11 35 -10 25 -23 38 -16 14
8 -9 9 -9 12 1 12 8 0 11 6 7 16 -3 8 -2 13 3 10 10 -7 9 -56 -2 -73 -4 -7
-13 -10 -20 -7 -15 5 -21 -33 -6 -41 5 -4 9 -2 9 4 0 6 11 21 24 34 25 25 28
66 6 92 -12 15 -3 21 23 16 15 -3 2 22 -19 36 -19 12 -20 11 -22 -14 -2 -58
-7 -67 -41 -69 -40 -2 -47 10 -19 33 27 21 32 49 11 58 -11 4 -13 1 -9 -11 8
-20 -12 -57 -26 -48 -7 4 -8 3 -4 -4 4 -7 3 -12 -2 -12 -14 0 -33 26 -25 33 3
4 1 7 -6 7 -7 0 -10 3 -8 8 3 4 -1 13 -9 20 -9 8 -14 9 -14 2z m-80 -88 c-21
-30 -21 -51 0 -77 7 -9 9 -15 4 -14 -22 4 -26 -2 -11 -18 8 -10 16 -22 18 -28
4 -23 13 -41 27 -58 8 -9 12 -20 9 -24 -4 -3 -7 -1 -7 7 0 10 -3 10 -15 0 -8
-7 -12 -17 -8 -23 3 -5 1 -7 -4 -4 -6 4 -21 -2 -33 -13 -12 -11 -27 -17 -31
-14 -5 3 -9 0 -9 -6 0 -6 -4 -9 -9 -6 -5 4 -23 -5 -39 -19 -24 -20 -31 -22
-36 -10 -3 8 -3 22 1 31 5 13 7 13 14 2 6 -9 9 -9 9 -1 0 7 9 10 21 8 17 -4
19 -2 9 10 -8 10 -9 15 -2 15 6 0 14 -5 17 -10 5 -8 11 -8 19 -1 7 6 17 7 21
3 5 -4 5 -1 0 7 -6 10 -4 12 5 6 9 -5 11 -4 6 3 -4 8 -2 10 7 6 8 -3 18 -1 22
5 3 7 0 8 -9 5 -19 -7 -21 7 -3 25 9 11 9 12 0 7 -9 -5 -11 -2 -7 8 3 9 1 16
-6 16 -6 0 -9 -4 -5 -9 3 -5 1 -12 -4 -15 -5 -4 -13 -1 -17 5 -5 8 -3 9 6 4 9
-5 11 -4 6 3 -11 18 -29 14 -22 -4 4 -10 2 -13 -6 -8 -7 5 -8 3 -3 -6 5 -9 4
-11 -3 -6 -8 4 -10 2 -6 -7 7 -19 -14 -33 -29 -18 -7 7 -3 18 17 36 15 14 25
29 22 34 -3 4 5 7 18 6 14 -2 23 2 23 11 0 7 -5 10 -10 7 -6 -4 -7 -1 -2 7 5
8 4 11 -1 7 -5 -3 -10 10 -10 28 0 18 4 32 7 29 4 -2 11 1 15 8 4 7 4 10 -1 6
-4 -4 -16 -3 -26 3 -14 7 -17 6 -13 -4 5 -15 -18 -40 -32 -35 -5 2 -10 -1 -11
-5 -3 -11 -47 -46 -52 -41 -2 2 2 10 8 18 9 11 9 16 0 22 -8 5 -9 3 -4 -6 5
-9 4 -11 -4 -6 -15 10 -4 27 13 20 9 -3 13 2 12 18 0 13 4 23 9 23 6 1 20 6
33 13 12 7 22 9 22 5 0 -4 7 3 16 15 8 12 19 20 24 17 4 -3 13 2 20 10 21 26
31 5 10 -23z m-55 -89 c-1 -16 2 -34 8 -40 6 -9 6 -13 -2 -13 -6 0 -11 3 -11
8 0 4 -8 12 -19 19 -15 9 -18 9 -18 -5 0 -34 -3 -43 -13 -37 -6 4 -8 10 -5 15
3 5 0 12 -6 16 -8 5 -9 3 -4 -6 5 -8 4 -11 -3 -6 -6 3 -14 1 -18 -5 -4 -7 -3
-9 4 -5 16 10 22 -7 7 -21 -11 -10 -15 -9 -20 7 -4 11 -11 20 -16 20 -5 0 -9
5 -9 11 0 8 4 8 14 0 10 -9 16 -8 25 3 7 8 19 12 26 9 10 -3 13 1 10 16 -2 13
1 18 9 15 7 -3 19 2 26 11 17 20 17 20 15 -12z m-123 -29 c-14 -10 -13 -15 6
-39 12 -15 22 -33 22 -39 0 -6 -5 -4 -10 4 -7 11 -10 11 -10 2 0 -7 -3 -11 -7
-9 -5 3 -19 0 -33 -5 -21 -8 -23 -11 -10 -21 18 -14 25 -47 10 -47 -5 0 -10 6
-10 14 0 19 -29 48 -41 41 -5 -4 -17 -1 -26 5 -16 11 -16 11 -1 6 10 -3 20 -1
23 4 4 6 11 10 16 10 6 0 7 -5 3 -12 -4 -7 -3 -8 5 -4 9 6 9 13 -3 30 -9 14
-11 28 -6 36 5 8 6 18 3 24 -4 5 -1 6 6 2 7 -5 10 -14 7 -22 -3 -8 -1 -14 5
-14 6 0 8 -4 5 -8 -2 -4 -1 -14 4 -22 7 -11 12 -11 23 -2 7 7 17 9 20 5 4 -3
7 -1 7 5 0 7 -4 13 -10 13 -5 1 -16 2 -22 3 -7 0 -14 10 -16 21 -3 16 -1 17 7
5 9 -13 11 -13 12 3 1 9 3 22 4 27 1 6 3 12 4 15 0 3 7 0 15 -7 11 -11 11 -15
-2 -24z m104 -29 c1 -8 -2 -15 -7 -15 -6 0 -8 -4 -5 -9 5 -8 -16 -23 -36 -25
-3 -1 -10 -5 -15 -10 -5 -6 -2 -6 6 -1 11 6 13 4 8 -9 -4 -9 -3 -14 2 -11 15
9 20 -9 6 -22 -10 -9 -15 -6 -24 14 -9 21 -9 30 4 49 15 23 33 35 20 14 -3 -5
-2 -10 4 -10 11 0 27 39 22 55 -1 6 1 6 5 2 4 -4 9 -14 10 -22z m-116 -21 c0
-8 -19 -13 -24 -6 -3 5 1 9 9 9 8 0 15 -2 15 -3z m163 -38 c-14 -25 -36 -45
-44 -40 -12 7 18 51 36 51 8 0 11 -5 8 -11z m-132 -10 c1 -6 1 -20 0 -31 -2
-17 0 -18 9 -5 10 12 11 11 5 -5 -5 -11 -8 -30 -9 -42 -1 -28 -11 -37 -43 -39
-14 0 -30 -9 -35 -18 -8 -13 -13 -15 -24 -5 -11 9 -17 9 -29 -1 -9 -8 -15 -9
-15 -2 0 6 5 14 11 18 8 4 8 9 0 17 -6 6 -11 16 -11 22 1 5 11 -3 24 -19 14
-17 29 -26 36 -21 8 5 9 10 1 18 -7 7 -7 17 0 31 8 16 6 16 -10 -4 -11 -14
-21 -20 -21 -13 0 26 30 42 72 38 24 -2 38 -1 33 3 -13 9 -13 35 0 45 6 5 1 6
-10 3 -11 -3 -27 -1 -35 5 -13 9 -12 10 3 5 9 -3 17 -2 17 3 0 12 30 9 31 -3z
m-21 -36 c0 -5 -2 -10 -4 -10 -3 0 -8 5 -11 10 -3 6 -1 10 4 10 6 0 11 -4 11
-10z m-65 -80 c3 -5 1 -10 -4 -10 -6 0 -11 5 -11 10 0 6 2 10 4 10 3 0 8 -4
11 -10z m-125 -50 c0 -5 -5 -10 -11 -10 -5 0 -7 5 -4 10 3 6 8 10 11 10 2 0 4
-4 4 -10z"/>
<path d="M880 2185 c-7 -8 -16 -12 -21 -10 -4 3 -13 -3 -18 -14 -16 -30 13
-21 39 12 22 28 22 39 0 12z"/>
<path d="M796 2135 c-10 -8 -22 -12 -26 -10 -4 2 -7 -1 -7 -8 0 -12 46 -20 48
-8 0 3 2 14 4 24 2 9 3 17 2 17 -1 0 -11 -7 -21 -15z"/>
<path d="M859 2106 c-5 -23 -3 -33 9 -48 8 -10 12 -18 8 -18 -3 0 0 -13 8 -29
11 -20 12 -31 4 -39 -8 -8 -6 -10 6 -8 20 3 20 8 1 46 -9 17 -12 30 -9 30 4 0
0 8 -9 18 -12 13 -14 21 -6 29 8 8 8 13 0 17 -6 4 -12 5 -12 2z"/>
<path d="M790 1960 c0 -5 5 -10 10 -10 6 0 10 5 10 10 0 6 -4 10 -10 10 -5 0
-10 -4 -10 -10z"/>
<path d="M750 1878 c0 -4 4 -8 9 -8 6 0 12 4 15 8 3 5 -1 9 -9 9 -8 0 -15 -4
-15 -9z"/>
<path d="M815 2081 c-3 -5 -2 -12 3 -15 5 -3 9 1 9 9 0 17 -3 19 -12 6z"/>
<path d="M829 1943 c-13 -16 -12 -17 4 -4 9 7 17 15 17 17 0 8 -8 3 -21 -13z"/>
<path d="M691 1882 c-1 -7 -5 -11 -10 -8 -5 3 -11 -1 -15 -9 -3 -8 0 -17 6
-21 6 -4 8 -3 5 3 -4 6 0 14 9 17 11 4 15 2 11 -7 -3 -8 1 -14 8 -14 8 0 11 7
7 15 -4 11 -1 13 8 7 9 -5 11 -4 6 4 -4 6 -11 9 -16 6 -4 -3 -11 1 -13 7 -4
10 -6 10 -6 0z"/>
<path d="M1293 2258 c-13 -6 -23 -15 -23 -21 0 -5 -8 -16 -17 -23 -10 -7 -13
-14 -6 -14 6 0 15 5 18 10 7 12 25 4 25 -12 0 -5 -6 -8 -14 -5 -17 7 -58 -21
-51 -34 4 -5 2 -9 -4 -9 -5 0 -11 6 -14 13 -2 6 -8 9 -12 4 -14 -13 14 -32 48
-32 18 0 32 -5 32 -12 0 -6 3 -15 8 -19 13 -13 7 30 -7 49 -14 18 -32 24 -21
7 3 -5 1 -10 -5 -10 -20 0 -4 25 16 26 38 2 42 4 40 22 0 9 -8 23 -16 30 -13
10 -12 11 4 5 13 -4 17 -3 12 5 -3 6 2 15 11 21 24 14 4 13 -24 -1z"/>
<path d="M1313 2235 c0 -20 24 -27 31 -9 3 9 10 12 16 9 5 -3 10 -1 10 4 0 14
-17 14 -25 1 -5 -8 -11 -8 -19 -1 -9 8 -13 7 -13 -4z"/>
<path d="M1376 2235 c-3 -9 -10 -14 -15 -11 -10 6 -25 -24 -16 -32 3 -3 5 0 5
7 0 8 8 11 20 8 11 -3 23 0 27 5 4 7 1 8 -7 3 -9 -5 -11 -4 -6 4 4 6 12 9 17
5 5 -3 7 -9 4 -14 -3 -5 1 -12 9 -17 8 -4 15 -12 15 -18 0 -5 5 -11 13 -13 10
-3 10 -2 -1 6 -9 7 -10 12 -2 16 6 4 11 2 11 -4 0 -6 12 -3 27 7 21 14 25 15
19 3 -7 -12 -6 -13 5 -2 7 6 17 12 23 12 5 0 1 -7 -10 -16 -10 -8 -12 -12 -4
-8 8 4 5 -4 -7 -16 -17 -18 -25 -21 -35 -12 -9 7 -19 8 -28 2 -8 -6 -10 -10
-4 -10 7 0 19 -12 29 -26 9 -15 13 -24 8 -21 -5 3 -9 -3 -9 -13 0 -10 5 -16
11 -13 5 4 7 3 3 -2 -4 -4 -2 -17 4 -29 7 -11 11 -25 9 -31 -1 -5 3 -4 10 3 7
6 18 12 24 12 5 0 3 -5 -5 -10 -8 -5 -15 -15 -15 -22 0 -7 -9 -12 -20 -10 -15
2 -17 1 -6 -6 8 -6 9 -12 3 -16 -5 -3 -13 1 -16 9 -3 9 1 18 9 21 8 4 12 10 9
16 -4 5 -11 5 -18 -1 -7 -6 -16 -7 -21 -3 -4 4 -2 -3 4 -15 9 -18 9 -22 -2
-18 -15 6 -20 45 -6 45 6 0 7 5 3 11 -9 16 -27 -17 -19 -34 4 -6 0 -4 -8 6
-16 19 -32 24 -21 5 4 -7 3 -8 -5 -4 -6 4 -8 12 -5 18 4 7 2 8 -4 4 -7 -4 -12
-2 -12 5 0 7 -3 10 -6 7 -3 -4 -21 0 -41 8 -19 8 -32 10 -28 5 3 -6 13 -11 21
-11 8 0 14 -4 14 -10 0 -5 9 -10 20 -10 11 0 20 -4 20 -8 0 -5 17 -16 38 -26
20 -10 48 -25 62 -34 25 -16 30 -18 51 -21 5 0 7 -7 3 -13 -4 -7 -4 -10 1 -6
4 4 20 -1 34 -11 14 -10 32 -16 40 -13 9 3 11 0 6 -8 -5 -9 -4 -11 3 -6 7 4
12 2 12 -3 0 -6 6 -11 14 -11 8 0 17 -6 19 -12 4 -10 6 -10 6 0 1 6 6 12 11
12 6 0 9 -3 9 -7 -3 -21 3 -24 18 -12 15 12 16 12 10 -3 -3 -9 1 -22 10 -29
13 -11 18 -10 29 6 8 11 22 20 32 20 9 0 16 6 14 13 -3 17 13 15 32 -3 14 -15
46 -11 46 6 0 4 -11 14 -24 21 -14 7 -26 18 -28 23 -2 6 -16 10 -32 10 -16 0
-32 7 -34 14 -3 10 0 11 9 5 12 -6 12 -5 0 9 -8 10 -11 20 -8 23 3 3 12 -3 19
-15 7 -12 16 -21 21 -21 4 0 5 5 2 10 -9 15 4 12 21 -5 25 -25 35 -17 11 8
-15 16 -26 20 -34 14 -9 -6 -13 -5 -13 2 0 21 32 25 46 6 8 -10 14 -15 14 -9
1 5 8 -4 17 -21 10 -16 16 -35 15 -42 -4 -18 18 -27 31 -13 9 10 8 12 -6 7
-11 -4 -17 -2 -15 6 8 40 -69 114 -94 89 -24 -24 -31 -11 -8 13 13 14 20 25
15 25 -5 0 0 6 11 14 10 8 16 18 11 22 -4 4 -7 2 -7 -5 0 -7 -5 -9 -10 -6 -6
4 -7 11 -4 17 4 6 3 8 -3 5 -6 -4 -9 -18 -8 -32 2 -14 -1 -27 -6 -31 -5 -3 -9
0 -9 6 0 7 -7 9 -16 6 -10 -4 -14 -2 -11 6 2 7 10 12 16 10 6 -1 11 3 11 9 0
6 -8 8 -18 4 -16 -5 -19 0 -17 30 3 31 1 34 -13 23 -13 -11 -15 -10 -9 4 4 13
2 15 -10 11 -12 -5 -14 -3 -8 7 5 9 4 11 -3 6 -7 -4 -12 -2 -12 6 0 7 -7 2
-16 -10 -8 -12 -20 -20 -25 -17 -13 9 -11 26 2 22 6 -1 13 3 16 10 5 13 -74
58 -96 54 -8 -1 -10 2 -5 11 5 9 2 8 -11 -2 -17 -14 -18 -13 -12 2 8 23 -24
43 -41 26 -7 -7 -12 -8 -12 -4 0 5 -6 3 -14 -3 -11 -10 -17 -7 -30 11 -9 12
-16 19 -16 14 0 -5 -8 -1 -19 8 -17 15 -19 15 -25 1z m181 -78 c6 -4 13 -2 15
3 2 6 12 3 23 -8 20 -19 27 -22 45 -22 6 0 10 -4 10 -10 0 -5 -3 -9 -7 -9 -30
5 -35 -2 -18 -21 16 -18 20 -19 35 -5 15 14 19 13 35 -5 10 -11 21 -17 26 -15
4 3 7 -4 6 -15 -2 -25 -14 -26 -22 -1 -3 10 -16 21 -28 24 -20 6 -21 5 -4 -8
11 -7 14 -16 8 -19 -5 -4 -14 2 -20 11 -6 10 -11 13 -11 8 0 -6 -9 -11 -21
-12 -18 -2 -19 0 -7 14 7 9 8 14 3 11 -6 -4 -17 -3 -25 3 -13 7 -13 9 0 9 13
0 13 1 0 10 -13 8 -13 10 -1 10 11 0 10 4 -5 16 -10 8 -13 12 -5 8 9 -5 12 -3
7 4 -11 18 -29 14 -22 -3 5 -13 2 -14 -15 -4 -17 9 -20 8 -14 -2 6 -8 4 -10
-6 -4 -8 5 -11 5 -7 0 4 -4 2 -15 -5 -24 -11 -14 -10 -15 8 -1 19 14 19 14 6
-2 -7 -10 -17 -15 -22 -12 -5 3 -9 0 -9 -5 0 -15 13 -14 30 2 12 10 12 9 0 -6
-7 -10 -18 -16 -25 -14 -6 3 -12 -5 -13 -16 -1 -17 1 -19 8 -7 8 13 11 13 26
-1 13 -14 14 -21 4 -40 -10 -22 -10 -22 3 -6 12 14 16 15 20 4 3 -8 1 -19 -5
-25 -8 -8 -7 -16 3 -28 9 -11 9 -15 2 -10 -9 5 -11 2 -6 -10 4 -12 8 -14 11
-5 3 8 8 7 19 -6 8 -10 12 -12 8 -5 -8 16 13 44 27 36 5 -3 2 -11 -7 -18 -14
-10 -14 -13 0 -31 11 -14 15 -16 14 -5 -3 28 1 40 12 40 8 0 8 -4 0 -14 -9
-10 -8 -16 3 -25 11 -10 16 -9 24 5 12 21 43 28 35 8 -3 -8 -10 -11 -16 -7 -5
3 -7 1 -3 -5 3 -6 -3 -13 -14 -17 -11 -4 -17 -11 -14 -17 8 -13 -13 -2 -39 20
-9 8 -20 12 -23 9 -4 -3 -21 5 -40 19 -28 22 -40 27 -73 33 -3 1 5 11 17 24
12 13 19 27 15 32 -5 4 -3 5 3 2 14 -8 27 20 14 28 -6 4 -14 4 -19 0 -12 -7
-28 23 -27 50 1 11 -8 34 -18 50 -17 26 -18 28 -3 16 16 -13 21 -12 39 6 21
21 33 23 55 10z m30 -52 c-1 -5 -9 -16 -17 -23 -8 -8 -9 -11 -3 -7 7 3 21 1
30 -5 15 -9 14 -10 -7 -4 -20 5 -22 4 -13 -6 6 -7 27 -13 47 -14 19 -1 39 -5
42 -9 4 -4 13 -2 19 3 17 14 28 -16 14 -38 -10 -16 -10 -16 -5 0 3 10 0 20 -6
24 -6 4 -8 3 -5 -3 8 -13 -21 -53 -39 -53 -8 0 -14 -4 -14 -8 0 -5 7 -9 15 -9
8 0 15 5 15 11 0 6 4 4 10 -4 5 -8 12 -11 17 -7 4 5 1 12 -7 17 -8 6 -13 10
-10 11 3 0 16 2 29 5 20 4 22 2 11 -11 -9 -11 -10 -18 -1 -29 15 -18 -6 -27
-31 -14 -14 6 -16 5 -12 -7 4 -8 1 -15 -6 -15 -6 0 -8 -5 -4 -12 5 -7 3 -8 -5
-3 -9 5 -9 11 -3 17 12 12 4 40 -9 32 -5 -3 -12 2 -15 10 -5 13 -9 12 -23 -5
-15 -19 -18 -20 -30 -5 -11 12 -11 20 -3 28 8 8 8 17 1 30 -5 10 -6 18 -2 18
4 0 -3 7 -15 16 -21 15 -22 17 -8 33 9 10 13 21 9 24 -3 4 0 7 8 7 12 0 11 2
-1 10 -12 7 -10 9 7 7 12 0 21 -6 20 -12z m146 -142 c-6 -15 -5 -16 9 -3 9 8
13 19 10 24 -3 5 0 6 7 2 9 -6 8 -13 -5 -27 -9 -11 -14 -22 -11 -26 8 -7 -11
-33 -25 -33 -5 0 -4 8 1 18 7 13 7 22 -1 30 -8 8 -8 15 1 26 8 10 9 16 1 21
-6 3 -7 11 -4 17 10 16 25 -28 17 -49z m21 -72 c3 -5 19 -7 36 -5 19 2 29 0
25 -6 -3 -5 5 -15 19 -21 14 -7 23 -16 20 -20 -3 -5 -22 2 -43 15 -37 23 -38
24 -49 5 -10 -16 -16 -18 -35 -9 -21 11 -21 10 -3 -4 10 -9 24 -13 30 -10 6 3
3 -1 -6 -9 -10 -8 -15 -17 -11 -20 3 -4 1 -7 -5 -7 -6 0 -14 5 -17 10 -3 6 -1
10 6 10 8 0 8 4 -1 15 -10 12 -16 13 -29 3 -9 -7 -13 -8 -9 -4 4 5 3 15 -2 21
-8 9 -1 17 22 28 38 19 45 20 52 8z m33 -46 c0 -8 -4 -15 -8 -15 -11 0 -20 16
-12 24 11 11 20 7 20 -9z"/>
<path d="M1500 2135 c-13 -14 -17 -25 -11 -29 5 -4 8 -14 4 -24 -3 -9 3 -6 13
8 10 14 19 27 19 30 1 15 18 29 28 24 7 -4 8 -3 4 1 -15 17 -35 13 -57 -10z
m23 3 c-4 -7 -8 -16 -9 -20 -1 -5 -2 -11 -3 -14 0 -3 -6 -2 -12 1 -7 5 -4 14
7 26 19 22 29 25 17 7z"/>
<path d="M1532 1975 c-13 -7 -28 -18 -33 -24 -5 -6 -6 -9 -2 -6 3 3 17 -2 29
-10 21 -14 23 -13 19 7 -3 12 0 27 6 35 13 15 12 15 -19 -2z m3 -25 c3 -6 -1
-7 -9 -4 -18 7 -21 14 -7 14 6 0 13 -4 16 -10z"/>
<path d="M1546 2062 c-7 -11 -1 -16 17 -13 6 1 10 -14 5 -21 -1 -2 4 -12 10
-24 8 -16 8 -24 0 -32 -19 -19 0 -27 20 -9 10 10 22 14 25 10 4 -3 7 -1 7 6 0
7 4 10 9 6 16 -9 35 35 22 48 -8 8 -11 8 -11 -1 0 -7 -5 -12 -11 -12 -5 0 -8
4 -5 8 2 4 -7 8 -22 7 -15 0 -34 8 -43 19 -11 13 -18 16 -23 8z m64 -41 c0 -5
11 -8 24 -7 17 2 23 -1 19 -10 -3 -8 -9 -12 -13 -9 -4 3 -21 -5 -36 -17 -16
-13 -24 -16 -17 -7 7 9 8 20 3 29 -5 8 -6 18 -4 22 7 11 24 10 24 -1z"/>
<path d="M1731 1881 c-10 -6 -9 -10 3 -14 8 -3 18 -2 21 3 8 13 -9 20 -24 11z"/>
<path d="M1695 1869 c-4 -6 -5 -12 -2 -15 2 -3 7 2 10 11 7 17 1 20 -8 4z"/>
<path d="M1156 2201 c9 -21 8 -62 -1 -84 -4 -10 -4 -17 1 -16 19 3 35 -1 30
-9 -2 -4 3 -8 12 -9 9 -1 30 -5 46 -9 18 -4 27 -3 23 3 -7 11 29 11 39 0 14
-14 26 -7 14 8 -10 12 -10 15 1 15 12 0 12 2 0 9 -9 6 -10 11 -2 15 6 4 11 12
11 18 0 6 -6 6 -15 -2 -9 -7 -14 -19 -11 -26 6 -17 -25 -28 -35 -12 -4 6 -5
16 -3 20 3 5 -7 6 -23 4 -36 -6 -86 30 -62 45 7 5 20 7 27 4 18 -6 15 9 -5 27
-24 21 -56 20 -47 -1z m34 -1 c0 -5 -5 -10 -11 -10 -5 0 -7 5 -4 10 3 6 8 10
11 10 2 0 4 -4 4 -10z m0 -80 c0 -5 7 -10 15 -10 8 0 15 -5 15 -10 0 -7 -6 -7
-19 0 -24 12 -36 30 -22 30 6 0 11 -4 11 -10z m60 -25 c-7 -9 -15 -13 -19 -10
-3 3 1 10 9 15 21 14 24 12 10 -5z"/>
<path d="M1310 2200 c0 -5 6 -10 13 -10 6 -1 -1 -8 -17 -16 -19 -11 -25 -19
-18 -26 13 -13 35 0 25 15 -4 7 0 7 10 -1 11 -10 15 -24 11 -49 l-4 -36 22 19
c12 10 18 13 13 5 -5 -9 -3 -12 5 -9 20 6 22 39 2 36 -10 -2 -20 -7 -24 -13
-5 -6 -8 -6 -8 2 0 14 59 58 67 49 4 -3 0 -6 -7 -6 -9 0 -7 -5 6 -15 19 -15
19 -15 -1 -8 -18 6 -19 5 -6 -11 8 -9 17 -13 20 -8 3 6 11 4 18 -3 10 -10 9
-14 -3 -19 -8 -3 -12 -11 -8 -17 4 -8 9 -7 15 2 6 10 8 7 6 -9 -1 -20 -9 -26
-29 -23 -5 0 -8 -4 -8 -10 0 -5 -5 -7 -11 -3 -8 4 -7 9 2 15 8 5 12 9 9 10 -3
0 -13 2 -23 4 -13 2 -17 -1 -13 -12 5 -12 4 -13 -7 -5 -8 7 -16 11 -18 9 -2
-1 2 3 9 10 9 7 10 13 3 18 -6 3 -11 2 -11 -3 0 -15 -31 -24 -45 -12 -8 6 -18
5 -31 -4 -18 -14 -17 -15 11 -14 17 1 41 -4 53 -11 12 -6 22 -9 22 -6 0 3 14
-2 31 -11 17 -8 28 -11 25 -6 -3 6 1 12 8 15 17 7 39 -16 28 -29 -4 -4 0 -3 9
4 9 6 19 8 24 4 4 -4 0 6 -10 22 -11 15 -19 42 -20 58 -1 16 -8 34 -16 38 -8
5 -14 13 -14 17 -1 24 -26 50 -46 48 -23 -2 -41 -25 -19 -25 6 0 8 5 4 12 -5
7 -3 8 6 3 10 -6 9 -11 -5 -21 -18 -14 -40 -9 -30 6 7 11 -5 40 -16 40 -5 0
-9 -4 -9 -10z m154 -166 c3 -8 2 -12 -4 -9 -6 3 -10 10 -10 16 0 14 7 11 14
-7z"/>
<path d="M960 2170 c-18 -14 -27 -16 -33 -7 -6 8 -7 7 -4 -4 3 -9 -1 -16 -8
-16 -8 0 -11 7 -7 16 3 9 2 13 -3 9 -4 -4 -9 -19 -10 -32 -3 -24 -2 -25 20
-10 22 14 24 14 36 -8 7 -13 12 -26 11 -30 -1 -4 4 -5 12 -2 7 3 19 -2 26 -11
7 -8 11 -15 9 -16 -33 -6 -45 -7 -53 -1 -6 3 -17 7 -24 8 -10 2 -10 -1 -2 -11
7 -8 9 -18 6 -23 -3 -6 1 -15 9 -22 12 -10 20 -9 40 4 14 9 23 21 20 26 -10
15 15 22 32 8 11 -8 14 -9 10 -1 -5 7 1 17 13 23 11 6 18 15 15 20 -3 4 -2 10
2 13 5 2 1 2 -7 -1 -8 -2 -21 -5 -28 -5 -9 0 -12 -8 -8 -21 4 -18 3 -19 -7 -5
-7 9 -16 17 -22 18 -5 2 -12 5 -15 8 -3 4 0 3 6 0 18 -10 26 22 12 46 -7 12
-12 25 -13 29 -1 16 -12 15 -35 -2z m27 -5 c0 -8 -5 -15 -10 -15 -12 0 0 -14
14 -16 19 -3 20 -4 14 -14 -5 -8 -12 -7 -23 2 -14 11 -15 10 -9 -7 6 -16 3
-15 -12 5 -18 23 -19 46 -1 35 4 -3 10 2 14 10 7 19 13 19 13 0z m4 -129 c-1
-3 -4 -6 -8 -7 -5 0 -13 -5 -20 -10 -7 -7 -14 -6 -19 2 -4 7 -3 9 3 6 6 -4 16
0 23 8 12 14 23 15 21 1z"/>
<path d="M1465 2171 c-7 -12 12 -24 25 -16 11 7 4 25 -10 25 -5 0 -11 -4 -15
-9z"/>
<path d="M1075 2149 c-4 -6 -14 -8 -22 -4 -13 4 -14 3 -4 -9 9 -11 9 -16 0
-22 -8 -4 -9 -3 -5 4 4 7 3 12 -2 12 -6 0 -12 -6 -15 -14 -7 -17 18 -15 53 4
11 6 26 8 33 4 6 -4 3 2 -7 14 -22 25 -23 26 -31 11z"/>
<path d="M1392 2116 c4 -5 3 -15 -4 -23 -6 -7 -8 -16 -4 -20 3 -3 6 -1 6 6 0
7 9 3 20 -10 10 -13 19 -19 20 -12 0 6 -5 15 -10 18 -8 5 -7 12 2 23 7 10 8
14 4 10 -5 -4 -16 -2 -25 4 -9 7 -13 8 -9 4z"/>
<path d="M1139 2086 c6 -7 7 -17 3 -22 -4 -4 1 -2 11 5 23 18 22 26 -4 28 -16
2 -18 -1 -10 -11z"/>
<path d="M1763 2063 c-15 -5 -17 -23 -4 -23 5 0 11 7 15 15 3 8 4 15 3 14 -1
0 -8 -3 -14 -6z"/>
<path d="M563 2028 c-17 -23 -25 -44 -9 -24 9 11 22 23 28 28 9 5 9 8 2 8 -6
0 -16 -6 -21 -12z"/>
<path d="M1822 2006 c-8 -19 -8 -25 3 -30 9 -3 12 0 8 11 -3 8 0 19 7 23 7 4
8 10 3 13 -6 4 -15 -4 -21 -17z"/>
<path d="M521 1997 c-1 -11 -6 -15 -13 -11 -6 4 -8 3 -4 -4 3 -6 2 -13 -4 -17
-5 -3 -10 -11 -10 -17 0 -6 9 1 21 16 11 14 18 32 16 39 -3 7 -6 4 -6 -6z"/>
<path d="M1860 2000 c0 -5 5 -10 11 -10 5 0 7 5 4 10 -3 6 -8 10 -11 10 -2 0
-4 -4 -4 -10z"/>
<path d="M476 1975 c-9 -26 -7 -32 5 -12 6 10 9 21 6 23 -2 3 -7 -2 -11 -11z"/>
<path d="M1898 1979 c11 -14 9 -16 -13 -16 -13 0 -22 3 -19 8 3 5 0 9 -6 9
-24 0 -2 -25 23 -27 33 -2 42 11 19 28 -15 12 -16 12 -4 -2z"/>
<path d="M1936 1955 c4 -11 3 -17 -1 -12 -5 4 -17 0 -27 -10 -11 -9 -18 -11
-18 -5 0 7 -5 12 -10 12 -6 0 -5 -8 2 -19 12 -19 12 -19 26 0 7 11 17 17 22
14 14 -9 23 16 11 28 -9 9 -10 7 -5 -8z"/>
<path d="M435 1950 c-6 -9 0 -14 17 -11 4 0 6 -8 5 -18 -1 -12 -8 -19 -19 -18
-11 1 -16 7 -14 14 3 7 1 13 -5 13 -6 0 -9 -8 -7 -17 5 -27 50 -24 54 3 4 25
-20 51 -31 34z"/>
<path d="M1955 1930 c-7 -23 2 -43 16 -35 5 4 9 -3 9 -15 0 -12 -5 -18 -10
-15 -14 9 -25 -24 -12 -37 8 -8 9 -5 5 11 -4 15 -1 21 8 19 9 -2 14 6 14 22 0
16 -5 24 -14 22 -10 -2 -12 4 -7 23 8 30 0 34 -9 5z"/>
<path d="M370 1920 c-9 -6 -10 -10 -3 -10 6 0 15 5 18 10 8 12 4 12 -15 0z"/>
<path d="M481 1924 c-1 -17 26 -37 41 -31 8 3 6 6 -5 6 -10 1 -16 5 -12 11 3
5 13 7 23 4 14 -5 14 -3 -2 6 -14 10 -20 10 -26 0 -6 -9 -9 -9 -13 1 -3 8 -6
9 -6 3z"/>
<path d="M1985 1920 c3 -5 8 -10 11 -10 2 0 4 5 4 10 0 6 -5 10 -11 10 -5 0
-7 -4 -4 -10z"/>
<path d="M1915 1910 c-3 -5 -1 -10 4 -10 6 0 11 5 11 10 0 6 -2 10 -4 10 -3 0
-8 -4 -11 -10z"/>
<path d="M2010 1911 c0 -6 4 -13 10 -16 6 -3 7 1 4 9 -7 18 -14 21 -14 7z"/>
<path d="M390 1901 c0 -6 4 -13 10 -16 6 -3 7 1 4 9 -7 18 -14 21 -14 7z"/>
<path d="M1190 1901 c0 -6 4 -13 10 -16 6 -3 7 1 4 9 -7 18 -14 21 -14 7z"/>
<path d="M350 1878 c0 -4 7 -8 15 -8 8 0 15 4 15 8 0 5 -7 9 -15 9 -8 0 -15
-4 -15 -9z"/>
<path d="M480 1880 c8 -5 20 -10 25 -10 6 0 3 5 -5 10 -8 5 -19 10 -25 10 -5
0 -3 -5 5 -10z"/>
<path d="M1157 1876 c-3 -8 0 -17 7 -19 10 -4 12 1 9 14 -6 23 -9 24 -16 5z"/>
<path d="M1845 1880 c3 -5 8 -10 11 -10 2 0 4 5 4 10 0 6 -5 10 -11 10 -5 0
-7 -4 -4 -10z"/>
<path d="M1930 1880 c0 -5 5 -10 10 -10 6 0 10 5 10 10 0 6 -4 10 -10 10 -5 0
-10 -4 -10 -10z"/>
<path d="M2010 1872 c6 -12 15 -20 21 -17 5 4 9 1 9 -4 0 -6 -4 -11 -9 -11 -5
0 -18 -3 -28 -6 -15 -5 -16 -4 -3 6 13 10 13 11 0 7 -8 -2 -14 -9 -13 -15 2
-6 -6 -16 -16 -22 -14 -7 -20 -6 -25 5 -6 16 -36 10 -36 -7 0 -6 6 -5 15 2 20
17 20 -4 -1 -24 -19 -19 -28 -21 -19 -3 4 6 -2 2 -12 -11 -10 -13 -27 -24 -37
-26 -10 -1 -21 -7 -24 -13 -4 -6 -56 -40 -117 -75 -320 -188 -345 -207 -407
-302 -21 -33 -48 -89 -60 -125 -21 -64 -21 -82 -23 -648 -1 -320 0 -581 4
-579 3 2 61 36 128 75 l121 72 1 177 c0 97 4 178 8 179 4 2 83 48 176 103 92
55 168 100 170 100 1 0 2 -76 1 -170 -1 -95 3 -170 8 -170 5 0 62 29 127 65
l119 66 0 682 1 682 -25 12 c-22 10 -24 10 -13 -3 11 -13 10 -15 -7 -12 -10 1
-25 10 -32 18 -11 13 -11 11 -2 -8z m-176 -673 c1 -103 -3 -174 -9 -179 -14
-11 -284 -160 -291 -160 -3 0 -4 57 -3 128 1 136 9 165 63 234 23 30 226 162
235 153 2 -3 4 -81 5 -176z"/>
<path d="M428 1873 c7 -3 16 -2 19 1 4 3 -2 6 -13 5 -11 0 -14 -3 -6 -6z"/>
<path d="M390 1860 c0 -5 5 -10 10 -10 6 0 10 5 10 10 0 6 -4 10 -10 10 -5 0
-10 -4 -10 -10z"/>
<path d="M452 1857 c-17 -20 7 -51 28 -36 13 9 13 10 -2 6 -12 -4 -16 0 -15
14 1 21 12 25 20 9 3 -6 4 -5 3 2 -3 18 -21 21 -34 5z"/>
<path d="M1230 1866 c0 -2 7 -7 16 -10 8 -3 12 -2 9 4 -6 10 -25 14 -25 6z"/>
<path d="M310 1186 l0 -676 38 -23 c20 -13 143 -84 271 -158 l235 -134 76 0
c68 0 82 4 125 30 58 36 100 93 113 152 5 23 8 210 7 415 -2 347 -3 377 -22
428 -63 171 -127 234 -403 394 -113 66 -228 133 -257 149 -29 17 -49 35 -46
41 4 5 0 7 -9 4 -15 -6 -72 24 -63 34 3 2 -1 5 -7 6 -7 0 -23 4 -35 7 l-23 7
0 -676z m346 148 c127 -75 155 -96 183 -138 l26 -39 3 -281 c3 -274 3 -282
-18 -304 -11 -12 -31 -22 -43 -22 -13 0 -72 29 -132 64 l-110 65 2 328 c1 364
1 373 7 373 2 0 39 -21 82 -46z"/>
<path d="M506 1844 c-9 -24 -2 -26 12 -4 7 11 8 20 3 20 -5 0 -12 -7 -15 -16z"/>
<path d="M1291 1844 c0 -11 3 -14 6 -6 3 7 2 16 -1 19 -3 4 -6 -2 -5 -13z"/>
<path d="M1917 1853 c-4 -3 -7 -11 -7 -17 0 -6 5 -5 12 2 6 6 9 14 7 17 -3 3
-9 2 -12 -2z"/>
<path d="M557 1836 c-4 -10 -1 -13 8 -9 8 3 12 9 9 14 -7 12 -11 11 -17 -5z"/>
<path d="M1093 1837 c-4 -6 -1 -7 7 -2 9 6 12 4 8 -7 -4 -8 -1 -15 7 -15 7 0
11 6 8 13 -3 9 3 12 23 8 16 -3 25 -2 22 2 -12 11 -68 12 -75 1z"/>
<path d="M1051 1827 c2 -1 13 -9 24 -17 19 -14 19 -14 6 3 -7 9 -18 17 -24 17
-6 0 -8 -1 -6 -3z"/>
<path d="M1186 1816 c6 -15 4 -17 -6 -11 -9 6 -11 4 -5 -4 5 -9 10 -10 18 -2
8 8 7 14 -2 24 -10 10 -11 8 -5 -7z"/>
<path d="M1796 1815 c-10 -8 -23 -12 -29 -8 -6 3 -7 1 -3 -5 4 -7 2 -12 -4
-12 -6 0 -9 -4 -5 -10 3 -5 14 -1 24 9 10 10 25 21 32 23 8 3 12 8 9 11 -3 3
-14 -1 -24 -8z"/>
<path d="M1847 1795 c-25 -23 -42 -33 -54 -28 -15 5 -15 3 2 -10 18 -15 21
-15 33 1 11 15 14 15 23 2 8 -12 9 -10 4 6 -4 16 1 28 21 43 15 12 23 21 17
21 -5 0 -25 -16 -46 -35z"/>
<path d="M540 1800 c0 -6 5 -8 10 -5 16 10 11 -7 -6 -19 -13 -10 -13 -12 4
-12 13 0 19 7 18 20 -1 20 -26 36 -26 16z"/>
<path d="M1025 1799 c-3 -4 2 -6 10 -5 21 3 28 13 10 13 -9 0 -18 -4 -20 -8z"/>
<path d="M1267 1799 c7 -9 10 -19 6 -22 -3 -4 -1 -7 5 -7 17 0 15 16 -5 31
-16 12 -17 12 -6 -2z"/>
<path d="M1810 1795 c-14 -8 -20 -14 -14 -15 5 0 19 7 30 15 24 18 16 19 -16
0z"/>
<path d="M1880 1795 c-7 -9 -11 -17 -9 -20 3 -2 10 5 17 15 14 24 10 26 -8 5z"/>
<path d="M1110 1796 c0 -2 9 -6 20 -9 11 -3 18 -1 14 4 -5 9 -34 13 -34 5z"/>
<path d="M975 1780 c-3 -5 -1 -10 4 -10 6 0 11 5 11 10 0 6 -2 10 -4 10 -3 0
-8 -4 -11 -10z"/>
<path d="M1083 1775 c-3 -9 -3 -18 -1 -21 3 -3 8 4 11 16 6 23 -1 27 -10 5z"/>
<path d="M1021 1764 c0 -11 3 -14 6 -6 3 7 2 16 -1 19 -3 4 -6 -2 -5 -13z"/>
<path d="M935 1759 c-4 -6 -4 -13 -1 -16 3 -4 6 -1 6 6 0 7 5 9 12 5 7 -4 8
-3 4 4 -9 15 -13 15 -21 1z"/>
<path d="M1150 1766 c0 -2 7 -7 16 -10 8 -3 12 -2 9 4 -6 10 -25 14 -25 6z"/>
<path d="M1234 1755 c1 -8 6 -18 11 -22 4 -5 5 -2 0 6 -6 11 -4 13 8 8 23 -9
21 0 -2 13 -15 7 -19 7 -17 -5z"/>
<path d="M895 1729 c-4 -6 -5 -12 -2 -15 2 -3 7 2 10 11 7 17 1 20 -8 4z"/>
<path d="M1195 1720 c3 -5 8 -10 11 -10 2 0 4 5 4 10 0 6 -5 10 -11 10 -5 0
-7 -4 -4 -10z"/>
<path d="M1270 1718 c0 -4 4 -8 9 -8 6 0 12 4 15 8 3 5 -1 9 -9 9 -8 0 -15 -4
-15 -9z"/>
<path d="M1225 1680 c0 -15 5 -27 10 -27 6 0 10 12 10 27 0 15 -4 27 -10 27
-5 0 -10 -12 -10 -27z"/>
<path d="M1118 1693 c7 -3 16 -2 19 1 4 3 -2 6 -13 5 -11 0 -14 -3 -6 -6z"/>
<path d="M1255 1689 c-4 -6 -5 -12 -2 -15 2 -3 7 2 10 11 7 17 1 20 -8 4z"/>
<path d="M974 1682 c4 -3 14 -7 22 -8 9 -1 13 0 10 4 -4 3 -14 7 -22 8 -9 1
-13 0 -10 -4z"/>
<path d="M1159 1673 c-12 -16 -12 -17 2 -6 9 7 19 10 22 6 4 -3 7 -1 7 5 0 17
-16 15 -31 -5z"/>
<path d="M1304 1675 c-18 -15 -18 -15 0 -8 15 5 17 3 11 -8 -5 -8 -4 -11 0 -6
8 7 17 37 11 37 -1 0 -11 -7 -22 -15z"/>
<path d="M1095 1670 c-4 -6 1 -7 11 -3 11 4 15 3 10 -5 -3 -6 -1 -14 5 -18 8
-4 9 -3 5 4 -4 7 -1 12 6 12 9 0 9 3 -2 10 -19 12 -27 12 -35 0z"/>
<path d="M1030 1661 c0 -17 21 -24 33 -12 9 9 7 10 -7 5 -13 -5 -17 -4 -12 4
4 7 2 12 -3 12 -6 0 -11 -4 -11 -9z"/>
<path d="M1193 1645 c0 -8 4 -15 9 -15 4 0 8 4 8 9 0 6 -4 12 -8 15 -5 3 -9
-1 -9 -9z"/>
<path d="M1270 1640 c0 -5 5 -10 10 -10 6 0 10 5 10 10 0 6 -4 10 -10 10 -5 0
-10 -4 -10 -10z"/>
<path d="M1239 1628 c-9 -30 -6 -37 12 -28 23 13 25 22 2 13 -11 -4 -14 -3 -9
5 4 7 5 12 2 12 -3 0 -6 -1 -7 -2z"/>
<path d="M1318 1623 c7 -3 16 -2 19 1 4 3 -2 6 -13 5 -11 0 -14 -3 -6 -6z"/>
</g>
</svg>
